<?xml version="1.0" standalone="no"?>
<!DOCTYPE svg PUBLIC "-//W3C//DTD SVG 20010904//EN"
 "http://www.w3.org/TR/2001/REC-SVG-20010904/DTD/svg10.dtd">
<svg version="1.0" xmlns="http://www.w3.org/2000/svg"
 width="238.000000pt" height="250.000000pt" viewBox="0 0 238.000000 250.000000"
 preserveAspectRatio="xMidYMid meet">
<metadata>
Created by potrace 1.10, written by Peter Selinger 2001-2011
</metadata>
<g transform="translate(0.000000,250.000000) scale(0.100000,-0.100000)"
fill="#000000" stroke="none">
<path d="M856 2045 c-9 -9 -20 -35 -26 -58 -6 -23 -16 -59 -21 -79 l-10 -38
-116 0 c-186 0 -233 -36 -233 -178 0 -84 15 -110 68 -114 l37 -3 53 -475 c30
-261 58 -493 64 -515 13 -50 84 -122 130 -130 18 -3 202 -5 410 -3 l376 3 39
31 c72 59 70 50 132 592 l56 497 35 2 c57 3 73 32 68 129 -3 71 -6 86 -28 109
-41 45 -78 55 -204 55 l-115 0 -11 43 c-6 23 -16 59 -21 79 -18 70 -6 68 -354
68 -269 0 -316 -2 -329 -15z m649 -105 l21 -75 -338 0 c-186 0 -338 4 -338 9
0 12 31 129 37 139 2 4 138 6 301 5 l296 -3 21 -75z m43 -61 c-3 -8 -7 -3 -11
10 -4 17 -3 21 5 13 5 -5 8 -16 6 -23z m-690 -32 c21 -3 19 -4 -10 -6 -41 -1
-41 -1 -31 26 7 16 8 16 11 1 2 -9 15 -19 30 -21z m702 3 c12 -8 9 -10 -13
-10 -16 0 -26 4 -22 10 8 12 16 12 35 0z m-797 -7 c-24 -2 -62 -2 -85 0 -24 2
-5 4 42 4 47 0 66 -2 43 -4z m960 0 c-24 -2 -62 -2 -85 0 -24 2 -5 4 42 4 47
0 66 -2 43 -4z m-1173 -7 c0 -3 -4 -8 -10 -11 -5 -3 -10 -1 -10 4 0 6 5 11 10
11 6 0 10 -2 10 -4z m1296 -41 c23 -23 25 -31 22 -97 l-3 -73 -682 -3 -683 -2
0 75 c0 67 3 79 25 100 l24 25 636 0 636 0 25 -25z m51 -57 c-3 -8 -6 -5 -6 6
-1 11 2 17 5 13 3 -3 4 -12 1 -19z m-1420 -25 c-3 -10 -5 -4 -5 12 0 17 2 24
5 18 2 -7 2 -21 0 -30z m1410 -98 c0 -8 -3 -13 -5 -10 -3 3 -11 0 -19 -6 -7
-6 -13 -8 -13 -4 0 6 26 31 36 35 0 0 1 -7 1 -15z m-1377 -15 c0 -5 -7 -7 -15
-4 -8 4 -15 8 -15 10 0 2 7 4 15 4 8 0 15 -4 15 -10z m94 -5 c-22 -17 -34 -19
-34 -6 0 5 8 12 18 14 32 9 36 7 16 -8z m1149 -2 c-7 -2 -19 -2 -25 0 -7 3 -2
5 12 5 14 0 19 -2 13 -5z m40 -15 c9 -31 2 -33 -11 -3 -6 14 -8 25 -3 25 5 0
11 -10 14 -22z m-27 -38 c-3 -19 -29 -237 -57 -485 -36 -327 -55 -460 -68
-485 -11 -23 -33 -43 -61 -58 -43 -22 -51 -22 -396 -22 -486 0 -458 -19 -498
340 -66 590 -76 677 -81 710 l-6 35 586 0 586 0 -5 -35z m21 -52 c-3 -7 -5 -2
-5 12 0 14 2 19 5 13 2 -7 2 -19 0 -25z m-1130 -610 c-3 -8 -6 -5 -6 6 -1 11
2 17 5 13 3 -3 4 -12 1 -19z m1050 -90 c-3 -7 -5 -2 -5 12 0 14 2 19 5 13 2
-7 2 -19 0 -25z m-999 -223 c-3 -3 -9 2 -12 12 -6 14 -5 15 5 6 7 -7 10 -15 7
-18z m955 -20 c-3 -9 -8 -14 -10 -11 -3 3 -2 9 2 15 9 16 15 13 8 -4z"/>
<path d="M527 1715 c-4 -8 -3 -16 1 -19 4 -3 9 4 9 15 2 23 -3 25 -10 4z"/>
<path d="M1123 1460 c-93 -56 -79 -194 24 -229 143 -50 229 164 94 234 -40 20
-79 19 -118 -5z m57 -4 c0 -2 -7 -6 -15 -10 -8 -3 -15 -1 -15 4 0 6 7 10 15
10 8 0 15 -2 15 -4z m85 -25 c3 -5 2 -12 -3 -15 -5 -3 -9 1 -9 9 0 17 3 19 12
6z m-26 -25 c48 -51 14 -136 -54 -136 -41 0 -78 39 -78 80 0 69 85 106 132 56z
m-24 -156 c3 -6 -4 -10 -17 -10 -18 0 -20 2 -8 10 19 12 18 12 25 0z"/>
<path d="M986 1177 c-80 -81 37 -197 199 -197 160 0 279 116 200 195 -32 33
-63 31 -116 -5 -58 -39 -115 -41 -158 -4 -17 14 -46 28 -65 31 -28 4 -39 1
-60 -20z m27 -12 c-3 -9 -8 -14 -10 -11 -3 3 -2 9 2 15 9 16 15 13 8 -4z m334
9 c-3 -3 -12 -4 -19 -1 -8 3 -5 6 6 6 11 1 17 -2 13 -5z m33 -24 c0 -5 -2 -10
-4 -10 -3 0 -8 5 -11 10 -3 6 -1 10 4 10 6 0 11 -4 11 -10z m-295 -24 c67 -46
133 -46 199 -1 43 29 59 31 76 10 19 -22 -9 -58 -67 -86 -71 -35 -162 -33
-225 4 -56 32 -75 61 -57 83 16 20 33 18 74 -10z m168 -3 c-7 -2 -19 -2 -25 0
-7 3 -2 5 12 5 14 0 19 -2 13 -5z m-248 -43 c10 -11 16 -20 13 -20 -3 0 -13 9
-23 20 -10 11 -16 20 -13 20 3 0 13 -9 23 -20z m82 -56 c-3 -3 -12 -4 -19 -1
-8 3 -5 6 6 6 11 1 17 -2 13 -5z m198 -4 c-3 -5 -12 -10 -18 -10 -7 0 -6 4 3
10 19 12 23 12 15 0z m-118 -16 c-3 -3 -12 -4 -19 -1 -8 3 -5 6 6 6 11 1 17
-2 13 -5z m53 2 c0 -2 -7 -7 -16 -10 -8 -3 -12 -2 -9 4 6 10 25 14 25 6z"/>
<path d="M792 1043 c-20 -8 -44 -63 -38 -88 14 -56 169 -160 281 -190 76 -19
224 -19 300 0 112 30 267 134 281 190 7 27 -18 80 -41 89 -41 15 -74 5 -126
-39 -153 -131 -386 -126 -542 12 -36 32 -77 41 -115 26z m53 -13 c-3 -5 -12
-10 -18 -10 -7 0 -6 4 3 10 19 12 23 12 15 0z m33 -25 c-3 -3 -9 2 -12 12 -6
14 -5 15 5 6 7 -7 10 -15 7 -18z m-83 -5 c-9 -10 -15 -26 -11 -35 3 -9 2 -13
-4 -10 -6 3 -10 11 -10 17 0 12 29 48 38 48 3 0 -3 -9 -13 -20z m88 -26 c137
-116 331 -144 493 -70 48 22 55 28 44 41 -10 12 -9 16 4 21 9 4 20 4 23 0 4
-3 -2 -6 -12 -6 -14 0 -16 -3 -7 -12 8 -8 20 -4 48 18 61 49 61 49 78 35 28
-23 18 -48 -36 -91 -70 -56 -114 -77 -205 -101 -97 -24 -160 -24 -258 1 -83
21 -144 52 -212 108 -44 35 -53 58 -31 80 18 18 26 15 71 -24z m68 -21 c13
-17 13 -17 -6 -3 -11 8 -22 16 -24 17 -2 2 0 3 6 3 6 0 17 -8 24 -17z m-146
-24 c11 -16 1 -19 -13 -3 -7 8 -8 14 -3 14 5 0 13 -5 16 -11z m555 -4 c0 -2
-10 -9 -22 -15 -22 -11 -22 -10 -4 4 21 17 26 19 26 11z m-496 -54 c-2 -3 -12
3 -22 13 -16 17 -16 18 5 5 12 -7 20 -15 17 -18z m303 13 c-3 -3 -12 -4 -19
-1 -8 3 -5 6 6 6 11 1 17 -2 13 -5z m76 -1 c-7 -2 -19 -2 -25 0 -7 3 -2 5 12
5 14 0 19 -2 13 -5z m-332 -40 c13 -17 13 -17 -6 -3 -11 8 -22 16 -24 17 -2 2
0 3 6 3 6 0 17 -8 24 -17z m50 -31 c-7 -2 -18 1 -23 6 -8 8 -4 9 13 5 13 -4
18 -8 10 -11z m449 -2 c-8 -5 -19 -10 -25 -10 -5 0 -3 5 5 10 8 5 20 10 25 10
6 0 3 -5 -5 -10z m-83 -26 c-3 -3 -12 -4 -19 -1 -8 3 -5 6 6 6 11 1 17 -2 13
-5z m-230 -10 c-3 -3 -12 -4 -19 -1 -8 3 -5 6 6 6 11 1 17 -2 13 -5z m183 2
c0 -2 -11 -6 -25 -8 -13 -3 -22 -1 -19 3 5 9 44 13 44 5z"/>
<path d="M1514 964 c-18 -14 -18 -15 4 -4 12 6 22 13 22 15 0 8 -5 6 -26 -11z"/>
<path d="M850 951 c0 -6 4 -13 10 -16 6 -3 7 1 4 9 -7 18 -14 21 -14 7z"/>
<path d="M1525 571 c-3 -5 -2 -12 3 -15 5 -3 9 1 9 9 0 17 -3 19 -12 6z"/>
</g>
</svg>
